<svg width="96" height="25" viewBox="0 0 96 25" fill="none" xmlns="http://www.w3.org/2000/svg">
<g clip-path="url(#clip0_2001_1750)">
<path d="M18.4271 9.04735L8.29342 19.181C8.21699 19.2575 8.0921 19.2575 8.01571 19.181L4.82295 15.9883C4.74652 15.9119 4.74652 15.787 4.82295 15.7105L14.9567 5.57686C15.0331 5.50042 15.1579 5.50042 15.2344 5.57686L18.4271 8.76959C18.5046 8.84603 18.5046 8.97092 18.4271 9.04735Z" fill="#00ACAC"/>
<path d="M9.83659 0.289474L1.21853 8.90861C0.26049 9.86664 0.26049 11.421 1.21853 12.3791L2.8149 13.9755C2.89133 14.0519 3.0162 14.0519 3.09263 13.9755L16.4998 0.567198C16.6236 0.443406 16.5354 0.232422 16.361 0.232422H9.97545C9.92378 0.232422 9.8732 0.252874 9.83659 0.289474Z" fill="#00ACAC"/>
<path d="M20.1681 10.7829L6.76094 24.1901C6.63718 24.3139 6.72541 24.5249 6.89979 24.5249H13.2853C13.337 24.5249 13.3876 24.5044 13.4242 24.4678L22.0422 15.8498C23.0003 14.8917 23.0003 13.3373 22.0422 12.3793L20.4458 10.7829C20.3694 10.7065 20.2456 10.7065 20.1681 10.7829Z" fill="#00ACAC"/>
<path d="M51.6001 3.97559C51.4912 3.97559 51.404 4.06386 51.404 4.1715V14.119C51.404 14.6303 51.2856 15.1362 51.0531 15.6217C50.5451 16.6077 49.6936 17.0867 48.4512 17.0867C47.1897 17.0867 46.3447 16.6088 45.8658 15.6239L45.8623 15.6174L45.8593 15.6109C45.5986 15.1276 45.4676 14.626 45.4676 14.1179V4.17258C45.4676 4.06386 45.3791 3.97666 45.2715 3.97666H41.6568C41.5481 3.97666 41.4609 4.06493 41.4609 4.17258V14.119C41.4609 15.2751 41.7602 16.443 42.3512 17.5916C43.5126 19.9243 45.5656 21.1094 48.4525 21.1094C51.3168 21.1094 53.3738 19.9253 54.5689 17.5905C55.1298 16.4366 55.4118 15.2708 55.4118 14.1179V4.17258C55.4118 4.06386 55.3233 3.97666 55.2157 3.97666H51.6001V3.97559Z" fill="#202C3A"/>
<path d="M61.1315 16.5947V4.17247C61.1315 4.06375 61.0434 3.97656 60.9358 3.97656H57.3211C57.2122 3.97656 57.125 4.06483 57.125 4.17247V20.5862C57.125 20.6949 57.2135 20.7821 57.3211 20.7821H68.587C68.6959 20.7821 68.7831 20.6938 68.7831 20.5862V16.9876C68.7831 16.8789 68.6946 16.7917 68.587 16.7917H61.3289C61.22 16.7906 61.1315 16.7023 61.1315 16.5947Z" fill="#202C3A"/>
<path d="M66.2578 4.17248V7.77105C66.2578 7.8798 66.3459 7.96699 66.4539 7.96699H71.0169C71.1254 7.96699 71.2126 8.05522 71.2126 8.16289V20.5851C71.2126 20.6938 71.3011 20.781 71.4086 20.781H75.0546C75.1631 20.781 75.2503 20.6927 75.2503 20.5851V8.16397C75.2503 8.05522 75.3388 7.96803 75.4464 7.96803H80.0107C80.1191 7.96803 80.2063 7.8798 80.2063 7.77213V4.17248C80.2063 4.06376 80.1183 3.97657 80.0107 3.97657H66.4539C66.345 3.9755 66.2578 4.06376 66.2578 4.17248Z" fill="#202C3A"/>
<path d="M38.5619 12.556C35.5759 9.25451 32.2055 11.4052 30.4326 9.64848C30.2044 9.41167 30.1732 9.11457 30.1936 8.80345C30.3239 7.88742 31.3271 7.4224 33.1754 7.4224C34.3778 7.4224 35.2626 7.64736 36.2099 8.09087C36.4198 8.19636 36.5845 8.28677 36.7126 8.36428C36.7901 8.41057 36.8891 8.39873 36.9527 8.33522L39.3886 5.89814C39.4715 5.81525 39.4651 5.67748 39.3725 5.60534C36.5253 3.39861 31.2862 2.87223 28.3249 4.92823C25.9546 6.57308 25.398 10.0489 27.4175 12.1512C30.2948 15.4613 33.6587 13.303 35.4478 15.0533C35.6642 15.3214 35.7546 15.5872 35.7438 15.8865C35.5931 16.8575 34.5726 17.3505 32.7125 17.3505C31.3218 17.3462 30.2216 17.0157 29.1591 16.3461C29.0817 16.2977 28.9805 16.3074 28.9159 16.372L26.4723 18.8155C26.3884 18.8984 26.3981 19.0351 26.4896 19.1094C26.904 19.4431 27.4444 19.7714 28.101 20.0868C30.7997 21.3872 35.1862 21.6143 37.6039 19.7843C38.8451 18.9275 39.5534 17.7832 39.7073 16.3903C39.9086 15.0113 39.5211 13.6593 38.5619 12.556Z" fill="#202C3A"/>
<path d="M94.2949 12.556C91.3092 9.25451 87.9386 11.4052 86.1657 9.64848C85.9375 9.41167 85.9063 9.11457 85.9267 8.80345C86.0573 7.88742 87.0602 7.4224 88.9086 7.4224C90.111 7.4224 90.996 7.64736 91.9429 8.09087C92.1529 8.19636 92.3177 8.28677 92.447 8.36428C92.5242 8.41057 92.6235 8.39873 92.6869 8.33522L95.123 5.89814C95.2059 5.81525 95.1994 5.67748 95.107 5.60534C92.2596 3.39861 87.0207 2.87223 84.0592 4.92823C81.689 6.57308 81.1324 10.0489 83.1517 12.1512C86.0291 15.4613 89.3931 13.303 91.1821 15.0533C91.3985 15.3214 91.4887 15.5872 91.4779 15.8865C91.3274 16.8575 90.3071 17.3505 88.447 17.3505C87.0558 17.3462 85.9558 17.0157 84.8934 16.3461C84.8158 16.2977 84.7147 16.3074 84.65 16.372L82.2065 18.8155C82.1228 18.8984 82.1323 19.0351 82.2239 19.1094C82.6381 19.4431 83.1786 19.7714 83.8354 20.0868C86.534 21.3872 90.9205 21.6143 93.338 19.7843C94.5795 18.9275 95.2874 17.7832 95.4414 16.3903C95.6405 15.0113 95.2532 13.6593 94.2949 12.556Z" fill="#202C3A"/>
</g>
<defs>
<clipPath id="clip0_2001_1750">
<rect width="95" height="24.2922" fill="white" transform="translate(0.5 0.232422)"/>
</clipPath>
</defs>
</svg>
